<svg width="1200" height="630" viewBox="0 0 1200 630" fill="none" xmlns="http://www.w3.org/2000/svg">
  <!-- Lukaut Open Graph Image 1200x630 -->
  
  <!-- Background -->
  <rect width="1200" height="630" fill="#1E3A5F"/>
  
  <!-- Subtle grid pattern overlay for texture -->
  <defs>
    <pattern id="grid" width="40" height="40" patternUnits="userSpaceOnUse">
      <path d="M 40 0 L 0 0 0 40" fill="none" stroke="#FEFEFE" stroke-opacity="0.03" stroke-width="1"/>
    </pattern>
  </defs>
  <rect width="1200" height="630" fill="url(#grid)"/>
  
  <!-- Centered Logo Lockup -->
  <g transform="translate(340, 215)">
    <!-- Logomark: Back layer (White L) -->
    <path 
      d="M 10 10
         Q 10 6 14 6
         L 48 6
         Q 52 6 52 10
         L 52 106
         L 128 106
         Q 132 106 132 110
         L 132 146
         Q 132 150 128 150
         L 14 150
         Q 10 150 10 146
         Z"
      fill="#FEFEFE"
    />
    
    <!-- Logomark: Front layer (Orange L) -->
    <path 
      d="M 22 22
         Q 22 18 26 18
         L 60 18
         Q 64 18 64 22
         L 64 94
         L 116 94
         Q 120 94 120 98
         L 120 134
         Q 120 138 116 138
         L 26 138
         Q 22 138 22 134
         Z"
      fill="#FF6B35"
    />
    
    <!-- Wordmark "ukaut" - scaled up -->
    <g transform="translate(140, 18) scale(1.7)">
      <!-- Letter: u -->
      <path d="M 0 32 L 0 58 Q 0 70 12 70 Q 24 70 24 58 L 24 32 L 36 32 L 36 58 Q 36 78 12 78 Q -12 78 -12 58 L -12 32 Z" fill="#FEFEFE"/>
      
      <!-- Letter: k -->
      <path d="M 44 18 L 56 18 L 56 44 L 76 32 L 92 32 L 68 47 L 94 78 L 78 78 L 58 54 L 56 56 L 56 78 L 44 78 Z" fill="#FEFEFE"/>
      
      <!-- Letter: a -->
      <path d="M 120 78 L 120 72 Q 114 78 102 78 Q 90 78 90 66 Q 90 54 108 54 L 120 54 L 120 52 Q 120 44 108 44 Q 100 44 96 48 L 90 40 Q 98 32 110 32 Q 132 32 132 52 L 132 78 Z M 120 62 L 110 62 Q 102 62 102 66 Q 102 70 110 70 Q 120 70 120 62 Z" fill="#FEFEFE"/>
      
      <!-- Letter: u -->
      <path d="M 142 32 L 142 58 Q 142 70 154 70 Q 166 70 166 58 L 166 32 L 178 32 L 178 58 Q 178 78 154 78 Q 130 78 130 58 L 130 32 Z" fill="#FEFEFE"/>
      
      <!-- Letter: t -->
      <path d="M 200 18 L 200 32 L 216 32 L 216 42 L 200 42 L 200 62 Q 200 70 210 70 L 216 70 L 216 78 L 208 78 Q 188 78 188 62 L 188 42 L 178 42 L 178 32 L 188 32 L 188 18 Z" fill="#FEFEFE"/>
    </g>
  </g>
  
  <!-- Tagline -->
  <text x="600" y="480" font-family="system-ui, -apple-system, sans-serif" font-size="28" font-weight="400" fill="#FEFEFE" fill-opacity="0.7" text-anchor="middle">You inspect. We'll handle the rest.</text>
</svg>
