<svg width="80" height="104" viewBox="0 0 80 104" fill="none" xmlns="http://www.w3.org/2000/svg">
  <!-- Lukaut Logomark - Single Color (Navy Only) -->
  <!-- For reports, fax, single-color print applications -->
  
  <!-- Outer L shape -->
  <path 
    d="M 4 6 
       Q 4 2 8 2 
       L 34 2 
       Q 38 2 38 6 
       L 38 74 
       L 76 74 
       Q 80 74 80 78 
       L 80 100 
       Q 80 104 76 104 
       L 8 104 
       Q 4 104 4 100 
       Z"
    fill="#1E3A5F"
  />
  
  <!-- Inner L cutout (white/transparent) -->
  <path 
    d="M 12 14 
       Q 12 10 16 10 
       L 42 10 
       Q 46 10 46 14 
       L 46 66 
       L 68 66 
       Q 72 66 72 70 
       L 72 92 
       Q 72 96 68 96 
       L 16 96 
       Q 12 96 12 92 
       Z"
    fill="#FEFEFE"
  />
</svg>
