<svg width="512" height="512" viewBox="0 0 512 512" fill="none" xmlns="http://www.w3.org/2000/svg">
  <!-- Lukaut App Icon 512x512 -->
  
  <!-- Background with rounded corners -->
  <rect width="512" height="512" rx="96" fill="#1E3A5F"/>
  
  <!-- Back layer: White L -->
  <path 
    d="M 96 110 
       Q 96 96 110 96 
       L 206 96 
       Q 220 96 220 110 
       L 220 330 
       L 402 330 
       Q 416 330 416 344 
       L 416 402 
       Q 416 416 402 416 
       L 110 416 
       Q 96 416 96 402 
       Z"
    fill="#FEFEFE"
  />
  
  <!-- Front layer: Orange L -->
  <path 
    d="M 126 140 
       Q 126 126 140 126 
       L 236 126 
       Q 250 126 250 140 
       L 250 300 
       L 372 300 
       Q 386 300 386 314 
       L 386 372 
       Q 386 386 372 386 
       L 140 386 
       Q 126 386 126 372 
       Z"
    fill="#FF6B35"
  />
</svg>
