<svg width="100" height="100" viewBox="0 0 100 100" fill="none" xmlns="http://www.w3.org/2000/svg">
  <!-- Lukaut Logomark Only -->
  
  <!-- Back layer: Navy L -->
  <path 
    d="M 10 10
       Q 10 6 14 6
       L 38 6
       Q 42 6 42 10
       L 42 66
       L 90 66
       Q 94 66 94 70
       L 94 90
       Q 94 94 90 94
       L 14 94
       Q 10 94 10 90
       Z"
    fill="#1E3A5F"
  />
  
  <!-- Front layer: Orange L -->
  <path 
    d="M 18 18
       Q 18 14 22 14
       L 46 14
       Q 50 14 50 18
       L 50 58
       L 82 58
       Q 86 58 86 62
       L 86 82
       Q 86 86 82 86
       L 22 86
       Q 18 86 18 82
       Z"
    fill="#FF6B35"
  />
</svg>
